<?xml version="1.0" encoding="utf-8"?>
<!-- Generator: Adobe Illustrator 28.3.0, SVG Export Plug-In . SVG Version: 6.00 Build 0)  -->
<svg version="1.1" id="Layer_1" xmlns="http://www.w3.org/2000/svg" xmlns:xlink="http://www.w3.org/1999/xlink" x="0px" y="0px"
	 viewBox="0 0 24 24" style="enable-background:new 0 0 24 24;" xml:space="preserve">
<style type="text/css">
	.st0{fill:#FFFFFF;}
</style>
<path class="st0" d="M7.2,21.2c0.4,0,0.7-0.1,1.1-0.3c0.3-0.2,0.7-0.4,0.9-0.7v-2.1c-0.3,0-0.6,0.1-0.8,0.1s-0.5,0.1-0.7,0.2
	c-0.6,0.2-1,0.4-1.3,0.7c-0.3,0.3-0.4,0.6-0.4,1c0,0.3,0.1,0.6,0.4,0.8C6.5,21.1,6.8,21.2,7.2,21.2z M6.8,22.6
	c-0.7,0-1.3-0.2-1.8-0.6c-0.4-0.4-0.6-1-0.6-1.7c0-0.7,0.2-1.2,0.6-1.7c0.4-0.4,1.1-0.8,2.1-1c0.3-0.1,0.6-0.1,1-0.2
	s0.7-0.1,1.2-0.2c0-0.6-0.2-1.1-0.4-1.3c-0.3-0.3-0.7-0.4-1.2-0.4c-0.3,0-0.7,0.1-1,0.2c-0.3,0.1-0.8,0.3-1.3,0.7l-0.6-1.1
	c0.4-0.3,0.9-0.6,1.5-0.8S7.4,14,8,14c0.9,0,1.6,0.3,2.1,0.9c0.5,0.6,0.7,1.4,0.7,2.5v5H9.5l-0.1-0.9c-0.4,0.3-0.8,0.6-1.2,0.8
	C7.7,22.5,7.3,22.6,6.8,22.6z"/>
<g>
	<path class="st0" d="M4.3,5.7l0.1-1.8h3.9c0.4,0,0.7,0,0.9-0.1c0.2-0.1,0.4-0.2,0.6-0.3C9.9,3.3,10,3.1,10,2.8C10,2.5,10,2.3,9.8,2
		C9.7,1.8,9.5,1.5,9.3,1.3L10,0.8c0.4,0.4,0.7,0.8,0.9,1.3c0.2,0.4,0.3,0.9,0.3,1.3c0,0.4-0.1,0.7-0.2,1c-0.1,0.3-0.3,0.5-0.5,0.7
		c-0.2,0.2-0.5,0.4-0.9,0.5C9.2,5.7,8.7,5.7,8.2,5.7H4.3z M7.6,12c-0.6,0-1-0.1-1.5-0.3c-0.4-0.2-0.7-0.5-0.9-0.8
		C5,10.6,4.9,10.2,4.9,9.8c0-0.5,0.1-0.8,0.3-1.2C5.4,8.3,5.7,8,6.1,7.8L6,8C5.8,8,5.6,8,5.4,8C5.2,8,4.9,8,4.7,8H4.3l0.1-1.4H7
		c0.1-0.1,0.2-0.2,0.2-0.2c0.1-0.1,0.1-0.2,0.1-0.3c0-0.1,0-0.2,0-0.3c0-0.1-0.1-0.1-0.1-0.2h1c0,0.1,0.1,0.2,0.1,0.3
		c0,0.1,0,0.2,0,0.3c0,0.1,0,0.2,0,0.3c0,0.1,0,0.2-0.1,0.2h2.7V8h-0.4C10.3,8,10,8,9.8,8C9.6,8,9.4,8,9.3,8L9.2,7.8
		C9.5,8,9.8,8.3,10,8.6c0.2,0.3,0.3,0.7,0.3,1.2c0,0.4-0.1,0.8-0.3,1.1c-0.2,0.3-0.5,0.6-0.9,0.8C8.7,11.9,8.2,12,7.6,12z M7.6,10
		c0.4,0,0.6,0,0.9-0.1C8.7,9.8,8.9,9.7,9,9.6c0.1-0.1,0.2-0.3,0.2-0.5c0-0.2-0.1-0.4-0.2-0.6C8.8,8.3,8.7,8.2,8.5,8.1
		C8.2,8,8,8,7.6,8S7,8,6.8,8.1C6.6,8.2,6.4,8.3,6.3,8.5C6.2,8.6,6.1,8.8,6.1,9.1c0,0.2,0.1,0.4,0.2,0.5c0.1,0.2,0.3,0.3,0.5,0.3
		C7,10,7.3,10,7.6,10z"/>
</g>
<path class="st0" d="M15,22v-6h2v2.8c0.7-1,1.2-2.1,1.5-3.2c0.3-1.2,0.5-2.3,0.5-3.5s-0.2-2.4-0.5-3.5c-0.3-1.2-0.8-2.2-1.5-3.2V8
	h-2V2h6v2h-2.4c0.8,1.2,1.4,2.4,1.8,3.8S21,10.6,21,12s-0.2,2.8-0.6,4.2c-0.4,1.4-1,2.6-1.8,3.8H21v2H15z"/>
</svg>
